<?xml version="1.0" encoding="UTF-8"?>
<svg width="16px" height="10px" viewBox="0 0 16 10" version="1.1" xmlns="http://www.w3.org/2000/svg" xmlns:xlink="http://www.w3.org/1999/xlink">
    <!-- Generator: Sketch 52.6 (67491) - http://www.bohemiancoding.com/sketch -->
    <title>Mail-hove</title>
    <desc>Created with Sketch.</desc>
    <g id="Light" stroke="none" stroke-width="1" fill="none" fill-rule="evenodd">
        <g id="DIRECTORY-Copy-25" transform="translate(-356.000000, -392.000000)" fill="#CACACA">
            <g id="Group-Copy" transform="translate(355.000000, 296.000000)">
                <g id="Mail-hove" transform="translate(1.000000, 96.000000)">
                    <path d="M0.730754353,0.796137637 C0.573065255,0.71537005 0.307686043,0.573065255 0.24999491,0.403837932 C0.149996946,0.115382266 0.257687061,3.37507799e-14 0.684601446,3.37507799e-14 L8.03829788,3.37507799e-14 L15.3919943,3.37507799e-14 C15.8189087,3.37507799e-14 15.9265988,0.111536191 15.8266008,0.403837932 C15.7689097,0.56921918 15.5035305,0.71537005 15.3458414,0.796137637 C14.9227731,1.01921002 9.04596967,4.22299094 8.82674336,4.33837321 C8.60751706,4.45375548 8.38444468,4.50760053 8.03829788,4.50760053 C7.69215108,4.50760053 7.4690787,4.45375548 7.24985239,4.33837321 C7.03062609,4.22299094 1.15382266,1.01921002 0.730754353,0.796137637 Z M15.68045,0.969211036 C16.0227507,0.796137637 15.9996742,0.996133565 15.9996742,1.15766874 L15.9996742,9.04212359 C15.9996742,9.39596254 15.5496834,9.84595338 15.172768,9.84595338 L8.03829788,9.84595338 L0.903827752,9.84595338 C0.526912349,9.84595338 0,9.39980862 0,9.04212359 L0,1.15766874 C0,0.99997964 0.0192303777,0.796137637 0.357685025,0.969211036 C0.67306322,1.13074621 3.53454342,3.14608979 5.40758221,4.35760359 L2.24995419,7.91522346 C2.17303268,7.99214497 2.138418,8.08829686 2.18457091,8.13060369 C2.23072381,8.1767566 2.33456785,8.15368014 2.41148936,8.07675863 L6.20371985,4.87682378 C6.7767851,5.24604704 7.17677696,5.49988802 7.24985239,5.53834878 C7.54600021,5.68834572 7.75368829,5.7075761 8.03829788,5.7075761 C8.32290747,5.7075761 8.53059555,5.68834572 8.82674336,5.53834878 C8.89597272,5.49988802 9.29981066,5.24604704 9.87287591,4.87682378 L13.6651064,8.07675863 C13.745874,8.14983407 13.8458719,8.17291052 13.8920249,8.13060369 C13.9343317,8.08445079 13.899717,7.99214497 13.8227955,7.91522346 L10.6613214,4.35760359 C12.5343602,3.14608979 15.3650718,1.13074621 15.68045,0.969211036 Z" id="mail-icon"></path>
                </g>
            </g>
        </g>
    </g>
</svg>