<?xml version="1.0" encoding="UTF-8"?>
<svg width="16px" height="21px" viewBox="0 0 16 21" version="1.1" xmlns="http://www.w3.org/2000/svg" xmlns:xlink="http://www.w3.org/1999/xlink">
    <!-- Generator: Sketch 52.6 (67491) - http://www.bohemiancoding.com/sketch -->
    <title>badge-hove</title>
    <desc>Created with Sketch.</desc>
    <g id="Light" stroke="none" stroke-width="1" fill="none" fill-rule="evenodd">
        <g id="DIRECTORY-Copy-25" transform="translate(-356.000000, -629.000000)" fill="#CACACA" fill-rule="nonzero">
            <g id="Group-Copy" transform="translate(355.000000, 296.000000)">
                <g id="badge-hove" transform="translate(1.000000, 333.000000)">
                    <path d="M15.9651413,17.4932584 L13.2440417,11.4706519 L13.0795538,11.5740443 C13.0231579,11.6092917 12.9785112,11.6562882 12.9432638,11.7103343 L12.2594642,12.786555 C12.0479798,13.1202304 11.6814068,13.329365 11.2866358,13.3481636 L10.0130296,13.4045595 C9.94958428,13.4069093 9.88613895,13.4257079 9.82974311,13.4539059 L9.65115626,13.5455491 L8.37989987,16.3653415 L10.130521,20.2472556 C10.306758,20.6373269 10.8425185,20.6866732 11.0869005,20.336549 L12.4192524,18.42144 C12.5696413,18.2146553 12.764677,18.1065632 12.8915676,18.1841075 L15.4364302,18.273401 C15.8499998,18.2851501 16.131979,17.8668809 15.9651413,17.4932584 Z M8.69712651,14.0484121 C8.52323932,14.1330058 8.33055351,14.1776526 8.1378677,14.1776526 C7.94283206,14.1776526 7.75014625,14.130656 7.57625905,14.0390128 L7.25668259,13.8721751 L6.44129263,13.451556 C6.38489679,13.4233581 6.31910163,13.4045595 6.25800613,13.4022097 L4.98205009,13.3458138 C4.58727916,13.3270152 4.22070616,13.1178806 4.00922173,12.7842052 L3.32542209,11.7079844 C3.29017468,11.6515886 3.24317814,11.6069419 3.18913212,11.5716945 L2.83665808,11.3484609 L0.0638622663,17.4979581 C-0.102975448,17.8645311 0.169604479,18.2781006 0.564375409,18.2781006 L0.585523851,18.2781006 L3.15153489,18.1888072 C3.33247157,18.1888072 3.50165911,18.2781006 3.60270167,18.4261397 L4.93505355,20.3412487 C5.04549542,20.4986871 5.21938261,20.5785812 5.38622033,20.5785812 C5.5930051,20.5785812 5.79509022,20.4657895 5.8890833,20.2543051 L8.00392756,15.5640505 L8.69712651,14.0484121 Z M2.03066743,8.15504607 C2.10586189,8.29838551 2.14815878,8.45582392 2.15285843,8.61796198 L2.20925428,9.89391802 C2.21630376,10.0748547 2.31499649,10.2393426 2.46538542,10.3356855 L2.54527953,10.3873817 L3.11158783,10.7445554 L3.54395599,11.0171353 C3.68259578,11.1040789 3.7977373,11.2215702 3.88233107,11.3555104 L4.56613072,12.434081 C4.66247362,12.5868197 4.82696151,12.6808128 5.00789819,12.6902121 L6.28385423,12.7466079 C6.44364246,12.7536574 6.60343069,12.7959543 6.74677014,12.8687989 L6.81491512,12.9040463 L7.8770369,13.4562557 C7.95693102,13.4985526 8.04622445,13.5173512 8.13081822,13.5173512 C8.21776181,13.5173512 8.30470541,13.4962027 8.38694935,13.4562557 L9.51956595,12.8687989 C9.54776387,12.8523502 9.57831162,12.840601 9.60885937,12.8288519 C9.72870055,12.7795055 9.85324138,12.7513076 9.98248186,12.7442581 L10.0106798,12.7419083 L11.2560881,12.6855124 C11.4370247,12.678463 11.6015126,12.5797702 11.6978555,12.4293813 L12.3816552,11.3531606 C12.4685988,11.2145208 12.5860901,11.1017291 12.7200303,11.0147855 L13.7939012,10.3309858 C13.9466399,10.2346429 14.040633,10.070155 14.0500323,9.88921836 L14.1064282,8.61561215 C14.1134777,8.45582392 14.1557745,8.29603568 14.2286192,8.15269624 L14.8160759,7.02007965 C14.9006697,6.86264124 14.9006697,6.66995543 14.8160759,6.51251702 L14.230969,5.37990043 C14.1557745,5.23656098 14.1134777,5.07912258 14.108778,4.91698452 L14.0523822,3.64337831 C14.0429828,3.46244163 13.9489898,3.29795374 13.796251,3.20161084 L12.7200303,2.51781119 C12.5813905,2.43086759 12.466249,2.31337625 12.3816552,2.18178594 L11.6978555,1.10556519 C11.6015126,0.952826438 11.4370247,0.858833359 11.2560881,0.849434051 L9.98013203,0.793038204 C9.8203438,0.785988723 9.66055557,0.743691838 9.51721612,0.670847202 L8.38459953,0.0786908088 C8.30470541,0.0363939236 8.21541199,0.0175953079 8.13081822,0.0175953079 C8.04387462,0.0175953079 7.95693102,0.0387437505 7.87468708,0.0786908088 L6.74207048,0.666147549 C6.59873104,0.741342011 6.44129263,0.783638896 6.27915457,0.78833855 L5.00554836,0.844734397 C4.82461168,0.851783878 4.6601238,0.950476611 4.56378089,1.10086554 L3.87998125,2.17708628 C3.79303765,2.31572607 3.6755463,2.43086759 3.54160617,2.51546137 L2.46303559,3.19926101 C2.31029684,3.29560392 2.21630376,3.4600918 2.20690445,3.64102848 L2.15050861,4.91698452 C2.14345912,5.07677275 2.10116224,5.23656098 2.0283176,5.37990043 L1.44321069,6.51251702 C1.35861692,6.66995543 1.35861692,6.86264124 1.44321069,7.02007965 L2.03066743,8.15504607 Z" id="Shape"></path>
                </g>
            </g>
        </g>
    </g>
</svg>