<?xml version="1.0" encoding="UTF-8"?>
<svg width="16px" height="14px" viewBox="0 0 16 14" version="1.1" xmlns="http://www.w3.org/2000/svg" xmlns:xlink="http://www.w3.org/1999/xlink">
    <!-- Generator: Sketch 52.6 (67491) - http://www.bohemiancoding.com/sketch -->
    <title>Home-hove</title>
    <desc>Created with Sketch.</desc>
    <g id="Light" stroke="none" stroke-width="1" fill="none" fill-rule="evenodd">
        <g id="DIRECTORY-Copy-25" transform="translate(-355.000000, -551.000000)" fill="#CACACA">
            <g id="Group-Copy" transform="translate(355.000000, 296.000000)">
                <g id="Home-hove" transform="translate(0.000000, 255.000000)">
                    <path d="M15.7848601,5.42740816 L14.0257115,4.18942102 C14.0439979,4.14004782 14.0494838,4.07970281 14.0476551,4.02118643 C14.0458265,3.5932854 14.0476551,3.16355574 14.0476551,2.73565472 C14.0476551,2.3077537 14.0494838,1.87802404 14.0476551,1.45012302 C14.0458265,1.21240023 13.9763383,1.13742611 13.7404442,1.13742611 C13.1790526,1.13559748 12.6158325,1.13559748 12.054441,1.13742611 C11.8222041,1.13925475 11.7508873,1.21422886 11.7490586,1.45378029 L11.74723,2.58753514 L8.26733406,0.137161758 C8.00949627,-0.0438732897 7.98938126,-0.0457019266 7.73702938,0.131675848 L3.28795592,3.26413077 C2.25843338,3.98827096 1.22525356,4.71423979 0.193902374,5.44203726 C-0.0145622271,5.58832821 -0.0511349641,5.69621778 0.0658977943,5.86628101 C0.402366975,6.35635568 0.740664792,6.84460172 1.08444852,7.32736185 C1.13199308,7.39319278 1.21611037,7.43159415 1.29108448,7.49011053 C1.3861736,7.43525142 1.46480498,7.39502141 1.53612182,7.34564822 L1.90916374,7.08232451 C1.89453464,7.13169771 1.8872201,7.18655681 1.8872201,7.24690183 C1.89087737,9.260231 1.88904873,11.2753888 1.89087737,13.288718 C1.89087737,13.6069008 1.96219421,13.6800463 2.27489111,13.6800463 L6.07662712,13.6800463 C6.40029584,13.6800463 6.45515495,13.6215299 6.45515495,13.2923753 L6.45515495,7.91252564 L9.54372258,7.91252564 L9.54372258,13.3179762 C9.54372258,13.6123867 9.60955351,13.6800463 9.89482086,13.6800463 L13.7148432,13.6800463 C13.9982819,13.6800463 14.0714274,13.6050722 14.0714274,13.3216334 C14.0714274,11.2772174 14.0695988,9.23280145 14.0732561,7.19021409 C14.0732561,7.14449816 14.0677701,7.10426815 14.0604556,7.06586678 L14.466413,7.35296276 C14.7041358,7.52119736 14.7973963,7.50291099 14.9619736,7.26701683 L15.8781206,5.9503983 C16.0609843,5.69073187 16.0445266,5.61027185 15.7848601,5.42740816 Z" id="Path"></path>
                </g>
            </g>
        </g>
    </g>
</svg>