<?xml version="1.0" encoding="UTF-8"?>
<svg width="16px" height="22px" viewBox="0 0 16 22" version="1.1" xmlns="http://www.w3.org/2000/svg" xmlns:xlink="http://www.w3.org/1999/xlink">
    <!-- Generator: Sketch 52.6 (67491) - http://www.bohemiancoding.com/sketch -->
    <title>phone-hove</title>
    <desc>Created with Sketch.</desc>
    <g id="Light" stroke="none" stroke-width="1" fill="none" fill-rule="evenodd">
        <g id="DIRECTORY-Copy-25" transform="translate(-356.000000, -464.000000)" fill="#CACACA" fill-rule="nonzero">
            <g id="Group-Copy" transform="translate(355.000000, 296.000000)">
                <g id="phone-hove" transform="translate(1.000000, 168.000000)">
                    <path d="M5.3412744,7.06092361 C2.42079141,8.74815194 6.87555973,17.1017529 10.0727967,15.2567263 L13.0369777,20.3888136 C11.6871951,21.1680946 10.5486194,21.6584832 8.98520206,20.7651019 C4.64453407,18.2840266 -0.133113922,10.0129663 0.00283541137,5.07994761 C0.0489610779,3.36601495 1.06129808,2.69355128 2.37952107,1.93126395 C2.94516741,2.91204128 4.7732004,6.07771861 5.3412744,7.06092361 Z M6.5648184,6.92254661 C6.24922173,7.10462161 5.8438014,6.99780427 5.65929873,6.67977994 L2.86748207,1.84144028 C2.68540707,1.52584362 2.79222441,1.12042328 3.11024874,0.935920618 L4.57898707,0.0886649535 C4.89458374,-0.0934100461 5.30000407,0.013407287 5.48450673,0.33143162 L8.27875106,5.16977128 C8.46082606,5.48536794 8.35400873,5.89078828 8.0359844,6.07286327 L6.5648184,6.92254661 Z M14.1974024,20.1411916 C13.8818057,20.3232666 13.4763854,20.2164492 13.2918827,19.8984249 L10.5000661,15.0600853 C10.3179911,14.7444886 10.4248084,14.3390683 10.7428327,14.1545656 L12.2115711,13.3073099 C12.5271677,13.1252349 12.9325881,13.2320523 13.1170907,13.5500766 L15.911335,18.3884163 C16.09341,18.7040129 15.9865927,19.1094332 15.6685684,19.2939359 L14.1974024,20.1411916 Z" id="Shape"></path>
                </g>
            </g>
        </g>
    </g>
</svg>